<?xml version="1.0" encoding="utf-8"?>
<!-- Generator: Adobe Illustrator 24.1.2, SVG Export Plug-In . SVG Version: 6.00 Build 0)  -->
<svg version="1.1" xmlns="http://www.w3.org/2000/svg" xmlns:xlink="http://www.w3.org/1999/xlink" x="0px" y="0px" width="300px"
	 height="300px" viewBox="0 0 300 300" style="enable-background:new 0 0 300 300;" xml:space="preserve">
<style type="text/css">
	.st0{fill:#ECE3DB;}
	.st1{fill:url(#SVGID_1_);}
</style>
<g id="BG">
	<polygon class="st0" points="23.039,77.809 23.039,222.859 149.833,295.384 276.627,222.859 276.627,77.809 149.833,5.284 	"/>
</g>
<g id="Layer_1">
	<g>
		<g>
			<linearGradient id="SVGID_1_" gradientUnits="userSpaceOnUse" x1="59.4411" y1="258.5579" x2="240.2256" y2="42.1087">
				<stop  offset="0" style="stop-color:#BE965D"/>
				<stop  offset="0.2784" style="stop-color:#976F40"/>
				<stop  offset="0.4259" style="stop-color:#C99B61"/>
				<stop  offset="0.5584" style="stop-color:#F0BE7B"/>
				<stop  offset="0.6275" style="stop-color:#FFCB85"/>
				<stop  offset="0.7085" style="stop-color:#EEBC79"/>
				<stop  offset="0.8693" style="stop-color:#C0935B"/>
				<stop  offset="1" style="stop-color:#976F40"/>
			</linearGradient>
			<path class="st1" d="M65.398,88.871c-1.079-1.524,0.815-3.099,2.135-1.792c2.513,2.487,27.664,28.798,31.622,33.021
				c3.958,4.223,5.894,5.04,8.09,2.865c2.196-2.176-0.775-5.901-2.217-7.64c-1.441-1.739-30.258-36.522-31.678-38.212
				c-1.877-2.234-2.277-3.032-1.382-3.92c0.895-0.887,1.701-0.49,3.956,1.369c1.705,1.407,36.815,29.956,38.57,31.384
				c1.755,1.428,5.515,4.371,7.711,2.195s1.371-4.094-2.892-8.015c-4.262-3.922-30.819-28.839-33.33-31.329
				c-1.319-1.307,0.271-3.184,1.809-2.115c2.257,1.568,44.464,29.141,49.584,34.766c10.1,11.096-0.055,25.392,8.393,36.477
				c-2.686,2.312-5.755,4.961-9.146,7.892c-11.088-7.481-25.162,1.979-36.134-7.824C94.813,132.922,66.981,91.107,65.398,88.871z
				 M218.701,200.723c-5.867-4.995-33.871-28.893-52.678-44.944c-2.809,3.205-6.2,7.062-10.007,11.383
				c16.188,18.617,39.706,45.668,44.678,51.4c7.739,8.92,18.256,22.784,29.63,11.516
				C241.698,218.809,227.704,208.389,218.701,200.723z M227.47,107.819c6.901-13.272,9.611-28.021,2.9-34.67
				s-21.599-3.964-34.995,2.873c-13.34,6.808-22.581,16.791-24.219,27.353c-2.605,16.8-0.24,23.825-9.431,31.115
				c-5.15,4.084-76.739,66.377-85.66,74.094c-8.837,7.643-10.538,14.986-4.207,21.428l-0.008,0.008
				c0.031,0.031,0.063,0.055,0.094,0.085c0.03,0.031,0.054,0.062,0.086,0.093l0.008-0.008c6.502,6.272,13.914,4.586,21.629-4.168
				c7.789-8.838,70.667-79.762,74.789-84.864c7.358-9.106,14.448-6.762,31.406-9.344C210.522,130.19,220.599,121.034,227.47,107.819
				z M65.725,208.557l-8.839-5.056V97.169l3.657-2.092c-0.681-1.009-1.146-1.694-1.308-1.925c-0.28-0.395-0.447-0.833-0.657-1.256
				l-5.456,3.121v110.637l10.449,5.976C64.187,210.599,64.92,209.576,65.725,208.557z M149.834,0.979L19.275,75.656V225.01
				l130.559,74.677l130.557-74.677V75.656L149.834,0.979z M276.627,222.859l-126.793,72.525L23.039,222.859V77.809L149.834,5.284
				l126.793,72.525V222.859z M105.4,69.418l44.433-25.416l43.339,24.79c1.399-0.685,2.795-1.32,4.189-1.909l-47.527-27.186
				l-47.907,27.402C103.11,67.888,104.274,68.664,105.4,69.418z M240.173,95.677l2.609,1.492v106.332l-6.38,3.649
				c0.794,0.983,1.533,1.998,2.2,3.047l7.944-4.544V95.016l-5.542-3.17C240.777,93.119,240.497,94.397,240.173,95.677z
				 M199.281,228.383l-49.447,28.283l-48.652-27.828c-0.778,0.879-1.402,1.585-1.844,2.088c-0.236,0.268-0.475,0.497-0.713,0.754
				l51.209,29.291l52.041-29.766C200.983,230.273,200.119,229.328,199.281,228.383z"/>
		</g>
	</g>
	<g id="Layer_2">
	</g>
</g>
</svg>
