<?xml version="1.0" encoding="utf-8"?>
<!-- Generator: Adobe Illustrator 24.1.2, SVG Export Plug-In . SVG Version: 6.00 Build 0)  -->
<svg version="1.1" id="Layer_1" xmlns="http://www.w3.org/2000/svg" xmlns:xlink="http://www.w3.org/1999/xlink" x="0px" y="0px"
	 width="300px" height="300px" viewBox="0 0 300 300" style="enable-background:new 0 0 300 300;" xml:space="preserve">
<style type="text/css">
	.st0{fill:url(#SVGID_1_);}
</style>
<g>
	<g>
		<linearGradient id="SVGID_1_" gradientUnits="userSpaceOnUse" x1="38.1703" y1="283.2457" x2="270.6086" y2="4.9526">
			<stop  offset="0" style="stop-color:#BE965D"/>
			<stop  offset="0.2784" style="stop-color:#976F40"/>
			<stop  offset="0.4259" style="stop-color:#C99B61"/>
			<stop  offset="0.5584" style="stop-color:#F0BE7B"/>
			<stop  offset="0.6275" style="stop-color:#FFCB85"/>
			<stop  offset="0.7085" style="stop-color:#EEBC79"/>
			<stop  offset="0.8693" style="stop-color:#C0935B"/>
			<stop  offset="1" style="stop-color:#976F40"/>
		</linearGradient>
		<path class="st0" d="M65.565,87.892c-1.079-1.524,0.815-3.099,2.135-1.792c2.513,2.487,27.664,28.798,31.622,33.021
			c3.958,4.223,5.894,5.04,8.09,2.865c2.196-2.176-0.775-5.901-2.217-7.64c-1.441-1.739-30.258-36.522-31.678-38.212
			c-1.877-2.234-2.277-3.032-1.382-3.92c0.895-0.887,1.701-0.49,3.956,1.369c1.705,1.407,36.815,29.956,38.57,31.384
			c1.755,1.428,5.515,4.371,7.711,2.195c2.196-2.176,1.371-4.094-2.892-8.015c-4.262-3.922-30.819-28.839-33.33-31.329
			c-1.319-1.307,0.271-3.184,1.809-2.115c2.257,1.568,44.464,29.141,49.584,34.766c10.1,11.096-0.055,25.392,8.393,36.477
			c-2.686,2.312-5.755,4.961-9.146,7.892c-11.088-7.481-25.162,1.979-36.134-7.824C94.98,131.943,67.148,90.128,65.565,87.892z
			 M218.868,199.744c-5.867-4.995-33.871-28.893-52.678-44.944c-2.809,3.205-6.2,7.062-10.007,11.383
			c16.188,18.617,39.706,45.668,44.678,51.4c7.739,8.92,18.256,22.784,29.63,11.516C241.865,217.83,227.871,207.41,218.868,199.744z
			 M227.637,106.84c6.901-13.272,9.611-28.021,2.9-34.67c-6.711-6.649-21.599-3.964-34.995,2.873
			c-13.34,6.808-22.581,16.791-24.219,27.353c-2.605,16.8-0.24,23.825-9.431,31.115c-5.15,4.084-76.739,66.377-85.66,74.094
			c-8.837,7.643-10.538,14.986-4.207,21.428l-0.008,0.008c0.031,0.031,0.063,0.055,0.094,0.085c0.03,0.031,0.054,0.062,0.086,0.093
			l0.008-0.008c6.502,6.272,13.914,4.586,21.629-4.168c7.789-8.838,70.667-79.762,74.789-84.864
			c7.358-9.106,14.448-6.762,31.406-9.344C210.689,129.211,220.766,120.055,227.637,106.84z M65.892,207.578l-8.839-5.056V96.19
			l3.657-2.092c-0.681-1.009-1.146-1.694-1.308-1.925c-0.28-0.395-0.447-0.833-0.657-1.256l-5.456,3.121v110.637l10.449,5.976
			C64.354,209.62,65.087,208.597,65.892,207.578z M150.001,0L19.442,74.677v149.354l130.559,74.677l130.557-74.677V74.677L150.001,0
			z M276.794,221.88l-126.793,72.525L23.206,221.88V76.83L150.001,4.305L276.794,76.83V221.88z M105.567,68.439l44.433-25.416
			l43.339,24.79c1.399-0.685,2.795-1.32,4.189-1.909l-47.527-27.186L102.094,66.12C103.277,66.909,104.441,67.685,105.567,68.439z
			 M240.34,94.698l2.609,1.492v106.332l-6.38,3.649c0.794,0.983,1.533,1.998,2.2,3.047l7.944-4.544V94.037l-5.542-3.17
			C240.944,92.14,240.664,93.418,240.34,94.698z M199.448,227.404l-49.447,28.283l-48.652-27.828
			c-0.778,0.879-1.402,1.585-1.844,2.088c-0.236,0.268-0.475,0.497-0.713,0.754l51.209,29.291l52.041-29.766
			C201.15,229.294,200.286,228.349,199.448,227.404z"/>
	</g>
</g>
</svg>
